<svg width="204px" height="38px" viewBox="0 0 102 19" version="1.1" xmlns="http://www.w3.org/2000/svg" xmlns:xlink="http://www.w3.org/1999/xlink">
    <!-- Generator: Sketch 52.5 (67469) - http://www.bohemiancoding.com/sketch -->
    <title>QuadPay Logo</title>
    <desc>Created with Sketch.</desc>
    <g id="All" stroke="none" stroke-width="1" fill="none" fill-rule="evenodd">
        <g id="D" transform="translate(-646.000000, -95.000000)">
            <g id="Group-11" transform="translate(450.000000, 52.000000)">
                <g id="Group-3" transform="translate(82.000000, 39.000000)">
                    <g id="Group-5">
                        <g id="Group-6">
                            <g id="Group-9" transform="translate(114.000000, 4.000000)">
                                <g id="Group-13-Copy">
                                    <path d="M17.2238855,14.082883 L15.5823988,11.9958761 C15.5020643,11.8937377 15.3793042,11.8341101 15.2493585,11.8341101 L6.91354345,11.8341101 C4.63861372,11.602795 2.92315685,9.7267733 2.92315685,7.47026651 C2.92315685,5.05116215 4.92207691,3.08295294 7.37887259,3.08295294 C7.48599897,3.08295294 7.59269661,3.08672795 7.69878997,3.09421081 C8.69415207,3.16441467 9.63632498,3.56098728 10.3803488,4.22847033 C11.2019563,4.96563199 11.5015567,5.96897524 11.6049886,7.05389938 L11.6085434,7.12769453 L11.608658,9.48676017 C11.6086677,9.72076256 11.7983668,9.91045387 12.0323692,9.91045387 L14.2236321,9.91056017 C14.4576904,9.91056017 14.6474321,9.72081845 14.6474321,9.48676017 C14.6474321,9.48656134 14.647432,9.4863625 14.6474317,9.48616366 C14.6451885,7.89248897 14.6430102,7.07932703 14.6408969,7.04667783 C14.408691,3.21011981 11.1961081,0.206521739 7.32704194,0.206521739 C3.28688875,0.206521739 0,3.47280347 0,7.48753052 C0,11.2633824 2.84988299,14.3794786 6.62904823,14.7358167 C6.65244082,14.7378477 6.77158251,14.7445051 7.31408428,14.7678623 L11.0168796,14.7685393 L11.6096901,14.7686521 L11.6096901,15.5583957 L11.6096901,16.454657 L11.6097734,17.0513056 C11.609793,17.191547 11.6792032,17.3226935 11.7951566,17.4015761 L13.991434,18.8956954 C14.1849157,19.0273204 14.4484668,18.9771755 14.5800917,18.7836937 C14.6279322,18.7133707 14.6535014,18.6302777 14.6534731,18.5452246 L14.6524785,15.5586213 L14.6522492,14.7685393 L15.4551655,14.7685393 L16.8908451,14.7685393 C17.1248543,14.7685393 17.3145563,14.5788374 17.3145563,14.3448281 C17.3145563,14.2498168 17.282623,14.1575627 17.2238855,14.082883 Z" id="Fill-1-Copy" fill="#1D73EC"></path>
                                    <path d="M18.8888889,9.37608696 C18.8888889,12.5152174 21.554321,14.8695652 24.8493827,14.8695652 C28.1654321,14.8695652 30.8518519,12.5152174 30.8518519,9.37608696 L30.8518519,0.598913043 C30.8518519,0.392391304 30.662963,0.206521739 30.4530864,0.206521739 L27.8716049,0.206521739 C27.6407407,0.206521739 27.4728395,0.392391304 27.4728395,0.598913043 L27.4728395,9.21086957 C27.4728395,10.7184783 26.3604938,11.5652174 24.8493827,11.5652174 C23.3592593,11.5652174 22.2679012,10.7184783 22.2679012,9.21086957 L22.2679012,0.598913043 C22.2679012,0.392391304 22.1,0.206521739 21.8691358,0.206521739 L19.2876543,0.206521739 C19.0777778,0.206521739 18.8888889,0.392391304 18.8888889,0.598913043 L18.8888889,9.37608696 Z M33.0975309,14.6630435 C32.782716,14.6630435 32.6148148,14.3945652 32.7407407,14.126087 L39.3098765,0.227173913 C39.3728395,0.10326087 39.5197531,0 39.6666667,0 L39.8765432,0 C40.0234568,0 40.1703704,0.10326087 40.2333333,0.227173913 L46.8024691,14.126087 C46.9283951,14.3945652 46.7604938,14.6630435 46.445679,14.6630435 L44.1160494,14.6630435 C43.7382716,14.6630435 43.5703704,14.5391304 43.3814815,14.1467391 L42.6259259,12.5152174 L36.917284,12.5152174 L36.1617284,14.1673913 C36.0567901,14.4152174 35.8259259,14.6630435 35.4061728,14.6630435 L33.0975309,14.6630435 Z M38.1765432,9.70652174 L41.3666667,9.70652174 L39.7716049,6.29891304 L39.7506173,6.29891304 L38.1765432,9.70652174 Z M49.3,14.2706522 L49.3,0.598913043 C49.3,0.392391304 49.4679012,0.206521739 49.6777778,0.206521739 L54.7987654,0.206521739 C58.8493827,0.206521739 62.1654321,3.44891304 62.1654321,7.41413043 C62.1654321,11.4206522 58.8493827,14.6630435 54.7987654,14.6630435 L49.6777778,14.6630435 C49.4679012,14.6630435 49.3,14.4771739 49.3,14.2706522 Z M52.5740741,11.6065217 L54.7777778,11.6065217 C57.1493827,11.6065217 58.6814815,9.76847826 58.6814815,7.41413043 C58.6814815,5.08043478 57.1493827,3.2423913 54.7777778,3.2423913 L52.5740741,3.2423913 L52.5740741,11.6065217 Z M65.5024691,14.2706522 L65.5024691,0.598913043 C65.5024691,0.392391304 65.6703704,0.206521739 65.9012346,0.206521739 L70.9592593,0.206521739 C73.7296296,0.206521739 75.6604938,2.27173913 75.6604938,4.77065217 C75.6604938,7.33152174 73.7296296,9.4173913 70.9802469,9.4173913 L68.7765432,9.4173913 L68.7765432,14.2706522 C68.7765432,14.4771739 68.5876543,14.6630435 68.3777778,14.6630435 L65.9012346,14.6630435 C65.6703704,14.6630435 65.5024691,14.4771739 65.5024691,14.2706522 Z M68.7765432,6.40217391 L70.8962963,6.40217391 C71.7987654,6.40217391 72.4283951,5.7 72.4283951,4.77065217 C72.4283951,3.90326087 71.7987654,3.2423913 70.8962963,3.2423913 L68.7765432,3.2423913 L68.7765432,6.40217391 Z M75.9962963,14.6630435 C75.6814815,14.6630435 75.5135802,14.3945652 75.6395062,14.126087 L82.208642,0.227173913 C82.2716049,0.10326087 82.4185185,0 82.5654321,0 L82.7753086,0 C82.9222222,0 83.0691358,0.10326087 83.1320988,0.227173913 L89.7012346,14.126087 C89.8271605,14.3945652 89.6592593,14.6630435 89.3444444,14.6630435 L87.0148148,14.6630435 C86.637037,14.6630435 86.4691358,14.5391304 86.2802469,14.1467391 L85.5246914,12.5152174 L79.8160494,12.5152174 L79.0604938,14.1673913 C78.9555556,14.4152174 78.7246914,14.6630435 78.3049383,14.6630435 L75.9962963,14.6630435 Z M81.0753086,9.70652174 L84.2654321,9.70652174 L82.6703704,6.29891304 L82.6493827,6.29891304 L81.0753086,9.70652174 Z M93.7308642,14.2706522 L93.7308642,7.70326087 L89.0925926,0.805434783 C88.9246914,0.536956522 89.0925926,0.206521739 89.4283951,0.206521739 L92.1567901,0.206521739 C92.3246914,0.206521739 92.4296296,0.309782609 92.4925926,0.392391304 L95.4098765,4.62608696 L98.3271605,0.392391304 C98.3901235,0.309782609 98.4740741,0.206521739 98.662963,0.206521739 L101.391358,0.206521739 C101.72716,0.206521739 101.895062,0.536956522 101.72716,0.805434783 L97.0259259,7.6826087 L97.0259259,14.2706522 C97.0259259,14.4771739 96.837037,14.6630435 96.6271605,14.6630435 L94.1296296,14.6630435 C93.8987654,14.6630435 93.7308642,14.4771739 93.7308642,14.2706522 Z" id="QUADPAY-Copy-2" fill="#13131F"></path>
                                </g>
                            </g>
                        </g>
                    </g>
                </g>
            </g>
        </g>
    </g>
</svg>